<svg width="29" height="29" viewBox="0 0 29 29" fill="none" xmlns="http://www.w3.org/2000/svg">
<path d="M6.08065 25.2581C5.56332 25.2581 5.14516 25.6772 5.14516 26.1935V28.0645C5.14516 28.5809 5.56332 29 6.08065 29C6.59797 29 7.01613 28.5809 7.01613 28.0645V26.1935C7.01613 25.6772 6.59797 25.2581 6.08065 25.2581Z" fill="black"/>
<path d="M23.8548 25.2581C23.3375 25.2581 22.9194 25.6772 22.9194 26.1935V28.0645C22.9194 28.5809 23.3375 29 23.8548 29C24.3722 29 24.7903 28.5809 24.7903 28.0645V26.1935C24.7903 25.6772 24.3722 25.2581 23.8548 25.2581Z" fill="black"/>
<path d="M23.9334 0H5.50719C2.11513 0 1.40323 1.59594 1.40323 2.93461V26.1935C1.40323 26.7099 1.82139 27.129 2.33871 27.129H26.6613C27.1786 27.129 27.5968 26.7099 27.5968 26.1935V2.93461C27.5968 0 24.8399 0 23.9334 0ZM25.7258 25.2581H3.27419V2.93461C3.27419 2.58942 3.27419 1.87097 5.50719 1.87097H23.9334C25.7258 1.87097 25.7258 2.33965 25.7258 2.93461V25.2581Z" fill="black"/>
<path d="M14.5 10.2903C13.9827 10.2903 13.5645 10.7094 13.5645 11.2258V26.1935C13.5645 26.7099 13.9827 27.129 14.5 27.129C15.0173 27.129 15.4355 26.7099 15.4355 26.1935V11.2258C15.4355 10.7094 15.0173 10.2903 14.5 10.2903Z" fill="black"/>
<path d="M11.6935 16.8387C11.1762 16.8387 10.7581 17.2578 10.7581 17.7742V20.5807C10.7581 21.097 11.1762 21.5161 11.6935 21.5161C12.2109 21.5161 12.629 21.097 12.629 20.5807V17.7742C12.629 17.2578 12.2109 16.8387 11.6935 16.8387Z" fill="black"/>
<path d="M17.3065 16.8387C16.7891 16.8387 16.371 17.2578 16.371 17.7742V20.5807C16.371 21.097 16.7891 21.5161 17.3065 21.5161C17.8238 21.5161 18.2419 21.097 18.2419 20.5807V17.7742C18.2419 17.2578 17.8238 16.8387 17.3065 16.8387Z" fill="black"/>
<path d="M26.6613 10.2903H2.33871C1.82139 10.2903 1.40323 10.7094 1.40323 11.2258C1.40323 11.7422 1.82139 12.1613 2.33871 12.1613H26.6613C27.1786 12.1613 27.5968 11.7422 27.5968 11.2258C27.5968 10.7094 27.1786 10.2903 26.6613 10.2903Z" fill="black"/>
<path d="M26.6613 5.61292H2.33871C1.82139 5.61292 1.40323 6.03201 1.40323 6.5484C1.40323 7.06479 1.82139 7.48388 2.33871 7.48388H26.6613C27.1786 7.48388 27.5968 7.06479 27.5968 6.5484C27.5968 6.03201 27.1786 5.61292 26.6613 5.61292Z" fill="black"/>
</svg>
