<svg width="38" height="38" viewBox="0 0 38 38" fill="none" xmlns="http://www.w3.org/2000/svg">
<g clip-path="url(#clip0)">
<path d="M19.0222 8.81281C12.8208 8.81281 7.7756 13.858 7.7756 20.0594C7.7756 26.2608 12.8208 31.3061 19.0222 31.3061C25.2235 31.3061 30.2689 26.2608 30.2689 20.0594C30.2689 13.858 25.2236 8.81281 19.0222 8.81281ZM19.0222 29.8216C13.6393 29.8216 9.25991 25.4423 9.25991 20.0593C9.25991 14.6765 13.6392 10.2971 19.0222 10.2971C24.4051 10.2971 28.7845 14.6764 28.7845 20.0593C28.7845 25.4423 24.4051 29.8216 19.0222 29.8216Z" fill="black"/>
<path d="M25.6798 16.4316C25.4833 16.0719 25.0325 15.9394 24.6727 16.1358C24.6607 16.1424 24.6495 16.15 24.6379 16.1571C24.3051 16.3631 24.1871 16.7952 24.3769 17.1429C24.862 18.0314 25.1184 19.0399 25.1184 20.0594C25.1184 23.4208 22.3836 26.1556 19.0222 26.1556C15.6607 26.1556 12.926 23.4208 12.926 20.0594C12.926 16.698 15.6607 13.9632 19.0222 13.9632C19.3447 13.9632 19.6685 13.9886 19.9843 14.0387C20.376 14.1009 20.7429 13.8444 20.8251 13.4618C20.828 13.4485 20.8313 13.4355 20.8335 13.4218C20.8976 13.0169 20.6215 12.6367 20.2166 12.5726C19.8241 12.5104 19.4222 12.4789 19.0221 12.4789C14.8423 12.4789 11.4416 15.8795 11.4416 20.0594C11.4416 24.2393 14.8422 27.64 19.0221 27.64C23.202 27.64 26.6027 24.2393 26.6027 20.0594C26.6027 18.792 26.2836 17.5376 25.6798 16.4316Z" fill="black"/>
<path d="M23.7641 13.8575C23.73 13.8234 23.6921 13.7922 23.6513 13.7655C23.6112 13.7388 23.5682 13.7158 23.5229 13.6972C23.4784 13.6787 23.4316 13.6646 23.3841 13.6549C23.2884 13.6356 23.1896 13.6356 23.0939 13.6549C23.0464 13.6646 23.0004 13.6787 22.9551 13.6972C22.9106 13.7158 22.8675 13.7388 22.8275 13.7655C22.7866 13.7922 22.7488 13.8234 22.7139 13.8575C22.6798 13.8917 22.6493 13.9295 22.6219 13.9703C22.5951 14.0104 22.5721 14.0535 22.5536 14.0987C22.5419 14.1268 22.5326 14.1559 22.5245 14.1854C22.5197 14.2026 22.5149 14.2199 22.5114 14.2375C22.5018 14.285 22.4973 14.3339 22.4973 14.3822C22.4973 14.4312 22.5017 14.4795 22.5114 14.5277C22.521 14.5752 22.5351 14.6212 22.5537 14.6664C22.5722 14.711 22.5952 14.7541 22.6219 14.7942C22.6494 14.835 22.6798 14.8728 22.714 14.907C22.7489 14.9411 22.7867 14.9723 22.8275 14.9998C22.8676 15.0265 22.9107 15.0495 22.9552 15.068C23.0005 15.0866 23.0465 15.1007 23.094 15.1103C23.1422 15.12 23.1912 15.1244 23.2394 15.1244C23.2877 15.1244 23.3367 15.1199 23.3842 15.1103C23.4317 15.1008 23.4784 15.0866 23.523 15.068C23.5618 15.0521 23.5986 15.0323 23.6337 15.0103C23.6395 15.0067 23.6456 15.0035 23.6513 14.9998C23.6921 14.9723 23.73 14.9411 23.7641 14.907C23.7982 14.8728 23.8294 14.835 23.8561 14.7942C23.8828 14.7541 23.9059 14.711 23.9244 14.6664C23.943 14.6212 23.9571 14.5745 23.9667 14.5277C23.9764 14.4795 23.9816 14.4312 23.9816 14.3822C23.9816 14.187 23.9021 13.9955 23.7641 13.8575Z" fill="black"/>
<path d="M37.981 30.6885L35.5738 11.084C35.4063 9.71954 34.9778 8.42109 34.3002 7.22483C33.8843 6.49043 33.379 5.80755 32.7985 5.1951L32.7337 5.12674C32.2391 4.60491 31.4993 4.46582 30.8487 4.77242C30.1982 5.07894 29.8345 5.73823 29.9222 6.45192L32.9735 31.3034C32.9833 31.3832 32.9968 31.4616 33.0137 31.5387C33.2672 32.6937 34.2989 33.5188 35.4754 33.5187C35.5775 33.5187 35.6809 33.5125 35.7846 33.4998C36.6043 33.3991 37.2847 32.9136 37.6667 32.2468C37.7069 32.1766 37.7438 32.1044 37.7772 32.0304C37.8106 31.9564 37.8405 31.8807 37.8668 31.8034C37.985 31.4556 38.0286 31.0767 37.981 30.6885ZM31.3956 6.27097C31.3919 6.24121 31.3822 6.16187 31.4816 6.11504C31.5088 6.1022 31.5327 6.09722 31.5535 6.09722C31.6085 6.09722 31.6415 6.13211 31.6564 6.14784L31.7212 6.2162C32.219 6.74137 32.6522 7.32681 33.0087 7.95633C33.5896 8.98188 33.957 10.0951 34.1006 11.2649L35.3836 21.7134L33.3227 21.9664L31.3956 6.27097ZM36.4435 31.3755C36.3082 31.7181 35.9945 31.9784 35.6039 32.0264C35.0355 32.0966 34.5167 31.6907 34.4469 31.1225L33.5036 23.4397L35.5644 23.1867L36.5078 30.8694C36.5296 31.0469 36.5049 31.2197 36.4435 31.3755Z" fill="black"/>
<path d="M9.1531 5.3237C8.74608 5.27353 8.37595 5.56313 8.326 5.96992L7.65098 11.4675C7.54574 12.3242 6.85335 12.9706 5.9965 13.0229L5.5045 12.9624L6.39223 5.73257C6.44218 5.32578 6.15288 4.95542 5.74601 4.9054C5.33907 4.85501 4.96887 5.14483 4.91892 5.55162L4.03119 12.7815L3.53874 12.7211C2.72011 12.4629 2.20481 11.6684 2.30998 10.8117L2.985 5.3142C3.03495 4.90741 2.74564 4.53705 2.33878 4.48703C1.93198 4.43656 1.56163 4.72646 1.51168 5.13325L0.836663 10.6307C0.667816 12.0062 1.36985 13.2958 2.55408 13.9144L0.0291633 30.1636C0.0288664 30.1654 0.0285695 30.1673 0.0282727 30.1692C-0.0742234 30.8638 0.103679 31.5539 0.529175 32.1124C0.954671 32.6709 1.57284 33.0257 2.26916 33.1112L2.28267 33.1128C2.39021 33.126 2.49753 33.1326 2.60403 33.1326C3.19103 33.1326 3.75532 32.9341 4.22007 32.5592C4.76922 32.1161 5.10691 31.4852 5.17096 30.7826L6.66335 14.4191C7.96218 14.1055 8.95553 13.024 9.12437 11.6484L9.79939 6.15087C9.84927 5.74407 9.55996 5.37372 9.1531 5.3237ZM3.69282 30.6479C3.66551 30.9469 3.52182 31.2154 3.28811 31.4039C3.05439 31.5925 2.76182 31.6767 2.46413 31.6397L2.45062 31.638C2.15405 31.6017 1.89094 31.4507 1.70992 31.213C1.52927 30.9759 1.4535 30.6831 1.49639 30.3883L4.00061 14.2734L4.58627 14.3453C4.58657 14.3453 4.58679 14.3454 4.58708 14.3454C4.58731 14.3454 4.58753 14.3454 4.58775 14.3454L5.17297 14.4173L3.69282 30.6479Z" fill="black"/>
</g>
<defs>
<clipPath id="clip0">
<rect width="38" height="38" fill="white"/>
</clipPath>
</defs>
</svg>
